<?xml version="1.0" standalone="no"?>
<!DOCTYPE svg PUBLIC "-//W3C//DTD SVG 20010904//EN"
 "http://www.w3.org/TR/2001/REC-SVG-20010904/DTD/svg10.dtd">
<svg version="1.0" xmlns="http://www.w3.org/2000/svg"
 width="16.000000pt" height="16.000000pt" viewBox="0 0 16.000000 16.000000"
 preserveAspectRatio="xMidYMid meet">
<metadata>
Created by potrace 1.11, written by Peter Selinger 2001-2013
</metadata>
<g transform="translate(0.000000,16.000000) scale(0.006154,-0.006154)"
fill="#000000" stroke="none">
<path d="M1570 1338 c0 -369 4 -619 10 -628 7 -12 35 -15 145 -15 110 0 138 3
145 15 5 8 10 115 10 237 l0 223 228 2 227 3 3 132 c4 184 20 173 -248 173
l-210 0 0 75 0 75 214 0 c118 0 221 3 230 6 14 5 16 27 16 143 0 124 -2 138
-20 154 -18 15 -54 17 -385 17 l-365 0 0 -612z"/>
<path d="M647 1868 c-150 -437 -228 -662 -301 -870 -110 -316 -112 -308 65
-308 55 0 108 4 118 10 11 5 32 48 51 100 l32 90 257 0 257 0 27 -82 c15 -46
31 -90 37 -98 7 -11 34 -16 105 -18 108 -4 161 2 168 21 8 21 -400 1187 -422
1208 -18 17 -38 19 -195 19 l-174 0 -25 -72z m297 -461 c38 -111 71 -208 73
-214 4 -10 -29 -13 -146 -13 -83 0 -151 3 -151 7 0 16 144 423 149 423 3 0 37
-91 75 -203z"/>
</g>
</svg>
